<svg xmlns="http://www.w3.org/2000/svg" viewBox="0 0 512 512" width="512" height="512">
  <defs>
    <linearGradient id="hair" gradientUnits="userSpaceOnUse" x1="256" y1="88" x2="256" y2="476"><stop offset="0.0" stop-color="#FCCBD8"/><stop offset="0.42" stop-color="#F7ABC3"/><stop offset="0.68" stop-color="#F0A4C6"/><stop offset="0.85" stop-color="#C9ACE7"/><stop offset="1.0" stop-color="#A8B7F5"/></linearGradient>
    <linearGradient id="hairIn" gradientUnits="userSpaceOnUse" x1="256" y1="384" x2="256" y2="470"><stop offset="0.0" stop-color="#8A66C4" stop-opacity="0"/><stop offset="1.0" stop-color="#8A66C4" stop-opacity="0.44"/></linearGradient>
    <linearGradient id="tuft" gradientUnits="userSpaceOnUse" x1="256" y1="150" x2="256" y2="326"><stop offset="0.0" stop-color="#F9B4CA"/><stop offset="0.5" stop-color="#F2A6C8"/><stop offset="1.0" stop-color="#B5B2F2"/></linearGradient>
    <linearGradient id="earL" gradientUnits="userSpaceOnUse" x1="96" y1="160" x2="184" y2="104"><stop offset="0.0" stop-color="#A9B8F7"/><stop offset="0.35" stop-color="#C6B4EF"/><stop offset="0.75" stop-color="#F3B0CB"/><stop offset="1.0" stop-color="#F8B2C7"/></linearGradient>
    <linearGradient id="earR" gradientUnits="userSpaceOnUse" x1="416" y1="160" x2="328" y2="104"><stop offset="0.0" stop-color="#A9B8F7"/><stop offset="0.35" stop-color="#C6B4EF"/><stop offset="0.75" stop-color="#F3B0CB"/><stop offset="1.0" stop-color="#F8B2C7"/></linearGradient>
    <linearGradient id="skin" gradientUnits="userSpaceOnUse" x1="256" y1="200" x2="256" y2="430"><stop offset="0.0" stop-color="#FFF7F1"/><stop offset="1.0" stop-color="#FFE5D9"/></linearGradient>
    <linearGradient id="irisL" gradientUnits="userSpaceOnUse" x1="256" y1="278" x2="256" y2="342"><stop offset="0.0" stop-color="#7A2E0E"/><stop offset="0.4" stop-color="#EC7F1C"/><stop offset="0.75" stop-color="#FFBB3A"/><stop offset="1.0" stop-color="#FFE68E"/></linearGradient>
    <linearGradient id="irisR" gradientUnits="userSpaceOnUse" x1="256" y1="278" x2="256" y2="342"><stop offset="0.0" stop-color="#2A2270"/><stop offset="0.4" stop-color="#5D5FD8"/><stop offset="0.75" stop-color="#8FA6F6"/><stop offset="1.0" stop-color="#D2E2FF"/></linearGradient>
    <linearGradient id="skyLight" gradientUnits="userSpaceOnUse" x1="120" y1="0" x2="392" y2="512"><stop offset="0.0" stop-color="#FFE7F3"/><stop offset="0.5" stop-color="#FBB3DA"/><stop offset="1.0" stop-color="#C3A4F0"/></linearGradient>
    <linearGradient id="skyDark" gradientUnits="userSpaceOnUse" x1="120" y1="0" x2="392" y2="512"><stop offset="0.0" stop-color="#4A2D63"/><stop offset="0.55" stop-color="#33204C"/><stop offset="1.0" stop-color="#1E1436"/></linearGradient>
    <linearGradient id="skinB" gradientUnits="userSpaceOnUse" x1="320" y1="640" x2="320" y2="730"><stop offset="0.0" stop-color="#FFF1E8"/><stop offset="1.0" stop-color="#FFDCCD"/></linearGradient>
    <linearGradient id="skirtG" gradientUnits="userSpaceOnUse" x1="320" y1="540" x2="320" y2="664"><stop offset="0.0" stop-color="#C3DCF8"/><stop offset="1.0" stop-color="#A6C8F2"/></linearGradient>
    <linearGradient id="cardiG" gradientUnits="userSpaceOnUse" x1="320" y1="470" x2="320" y2="680"><stop offset="0.0" stop-color="#C9E0F9"/><stop offset="1.0" stop-color="#AFCDF2"/></linearGradient>
    <radialGradient id="glow" gradientUnits="userSpaceOnUse" cx="256" cy="180" r="300"><stop offset="0" stop-color="#FFFFFF" stop-opacity=".55"/><stop offset="1" stop-color="#FFFFFF" stop-opacity="0"/></radialGradient>
  </defs>
  <path d="M106 296 C70 302 40 332 30 376 C26 394 28 410 34 426 C40 408 50 398 62 392 C62 410 66 424 76 438 C82 416 94 402 108 394 Z" fill="#FFFFFF" stroke="#FFFFFF" stroke-width="31.0" stroke-linecap="round" stroke-linejoin="round"/>
  <path d="M406 296 C442 302 472 332 482 376 C486 394 484 410 478 426 C472 408 462 398 450 392 C450 410 446 424 436 438 C430 416 418 402 404 394 Z" fill="#FFFFFF" stroke="#FFFFFF" stroke-width="31.0" stroke-linecap="round" stroke-linejoin="round"/>
  <path d="M72 292 C58 330 60 380 48 436 L58 430 L64 444 C76 392 74 338 86 296 Z" fill="#FFFFFF" stroke="#FFFFFF" stroke-width="29.5" stroke-linecap="round" stroke-linejoin="round"/>
  <path d="M440 292 C454 330 452 380 464 436 L454 430 L448 444 C436 392 438 338 426 296 Z" fill="#FFFFFF" stroke="#FFFFFF" stroke-width="29.5" stroke-linecap="round" stroke-linejoin="round"/>
  <path d="M84 284 C64 256 38 246 30 264 C24 280 48 294 84 288 Z" fill="#FFFFFF" stroke="#FFFFFF" stroke-width="29.5" stroke-linecap="round" stroke-linejoin="round"/>
  <path d="M428 284 C448 256 474 246 482 264 C488 280 464 294 428 288 Z" fill="#FFFFFF" stroke="#FFFFFF" stroke-width="29.5" stroke-linecap="round" stroke-linejoin="round"/>
  <path d="M84 288 C60 292 36 306 42 324 C48 340 72 320 86 294 Z" fill="#FFFFFF" stroke="#FFFFFF" stroke-width="29.5" stroke-linecap="round" stroke-linejoin="round"/>
  <path d="M428 288 C452 292 476 306 470 324 C464 340 440 320 426 294 Z" fill="#FFFFFF" stroke="#FFFFFF" stroke-width="29.5" stroke-linecap="round" stroke-linejoin="round"/>
  <path d="M256 100 C164 100 78 176 74 290 C72 346 82 396 104 430 C116 448 132 458 152 462 C154 452 160 445 170 440 C178 452 192 462 210 468 C214 459 222 452 232 448 C238 455 246 460 256 462 C266 460 274 455 280 448 C290 452 298 459 302 468 C320 462 334 452 342 440 C352 445 358 452 360 462 C380 458 396 448 408 430 C430 396 440 346 438 290 C434 176 348 100 256 100 Z" fill="#FFFFFF" stroke="#FFFFFF" stroke-width="31.0" stroke-linecap="round" stroke-linejoin="round"/>
  <path d="M108 204 C90 146 94 76 120 32 C124 25 133 24 139 29 C186 62 224 106 240 152 Z" fill="#FFFFFF" stroke="#FFFFFF" stroke-width="31.0" stroke-linecap="round" stroke-linejoin="round"/>
  <path d="M126 186 C112 140 114 92 128 56 C162 82 196 116 212 150 Z" fill="#FFFFFF" stroke="#FFFFFF" stroke-width="29.0" stroke-linecap="round" stroke-linejoin="round"/>
  <path d="M126 182 C122 160 124 140 130 120 C134 132 138 142 144 150 C142 130 144 112 150 94 C156 110 162 122 170 132 C170 122 172 114 176 106 C182 120 190 132 198 142 C202 146 206 150 210 152 Z" fill="#FFFFFF" stroke="#FFFFFF" stroke-width="28.5" stroke-linecap="round" stroke-linejoin="round"/>
  <path d="M404 204 C422 146 418 76 392 32 C388 25 379 24 373 29 C326 62 288 106 272 152 Z" fill="#FFFFFF" stroke="#FFFFFF" stroke-width="31.0" stroke-linecap="round" stroke-linejoin="round"/>
  <path d="M386 186 C400 140 398 92 384 56 C350 82 316 116 300 150 Z" fill="#FFFFFF" stroke="#FFFFFF" stroke-width="29.0" stroke-linecap="round" stroke-linejoin="round"/>
  <path d="M386 182 C390 160 388 140 382 120 C378 132 374 142 368 150 C370 130 368 112 362 94 C356 110 350 122 342 132 C342 122 340 114 336 106 C330 120 322 132 314 142 C310 146 306 150 302 152 Z" fill="#FFFFFF" stroke="#FFFFFF" stroke-width="28.5" stroke-linecap="round" stroke-linejoin="round"/>
  <path d="M100 240 C84 286 76 350 88 400 C92 418 100 432 112 442 C112 430 114 420 120 412 C126 430 136 444 152 450 C142 434 138 418 140 398 C144 358 146 300 134 244 Z" fill="#FFFFFF" stroke="#FFFFFF" stroke-width="31.0" stroke-linecap="round" stroke-linejoin="round"/>
  <path d="M412 240 C428 286 436 350 424 400 C420 418 412 432 400 442 C400 430 398 420 392 412 C386 430 376 444 360 450 C370 434 374 418 372 398 C368 358 366 300 378 244 Z" fill="#FFFFFF" stroke="#FFFFFF" stroke-width="31.0" stroke-linecap="round" stroke-linejoin="round"/>
  <path d="M238 190 C232 240 240 290 260 324 C270 292 282 240 282 190 Z" fill="#FFFFFF" stroke="#FFFFFF" stroke-width="30.0" stroke-linecap="round" stroke-linejoin="round"/>
  <path d="M92 304 C78 190 148 90 256 88 C364 90 434 190 420 304 C408 290 402 274 400 256 C398 274 388 288 372 298 C370 278 362 260 352 242 C350 250 346 254 340 257 C334 252 328 246 324 238 C320 248 312 255 302 258 C286 256 266 240 258 214 C250 240 230 256 212 258 C202 255 194 248 190 238 C186 246 180 252 174 257 C168 254 164 250 162 242 C158 262 152 282 140 298 C128 286 118 272 112 256 C110 274 104 290 92 304 Z" fill="#FFFFFF" stroke="#FFFFFF" stroke-width="31.0" stroke-linecap="round" stroke-linejoin="round"/>
  <path d="M256 96 C244 72 244 44 264 34 C276 28 290 32 294 42 C284 37 273 40 268 50 C261 64 265 82 271 96 Z" fill="#FFFFFF" stroke="#FFFFFF" stroke-width="31.0" stroke-linecap="round" stroke-linejoin="round"/>
  <path d="M106 296 C70 302 40 332 30 376 C26 394 28 410 34 426 C40 408 50 398 62 392 C62 410 66 424 76 438 C82 416 94 402 108 394 Z" fill="url(#hair)" stroke="#7E4A74" stroke-width="5" stroke-linecap="round" stroke-linejoin="round"/>
  <path d="M406 296 C442 302 472 332 482 376 C486 394 484 410 478 426 C472 408 462 398 450 392 C450 410 446 424 436 438 C430 416 418 402 404 394 Z" fill="url(#hair)" stroke="#7E4A74" stroke-width="5" stroke-linecap="round" stroke-linejoin="round"/>
  <path d="M72 292 C58 330 60 380 48 436 L58 430 L64 444 C76 392 74 338 86 296 Z" fill="#CFE5FB" stroke="#6F8FCB" stroke-width="3.5" stroke-linecap="round" stroke-linejoin="round"/>
  <path d="M440 292 C454 330 452 380 464 436 L454 430 L448 444 C436 392 438 338 426 296 Z" fill="#CFE5FB" stroke="#6F8FCB" stroke-width="3.5" stroke-linecap="round" stroke-linejoin="round"/>
  <path d="M84 284 C64 256 38 246 30 264 C24 280 48 294 84 288 Z" fill="#CFE5FB" stroke="#6F8FCB" stroke-width="3.5" stroke-linecap="round" stroke-linejoin="round"/>
  <path d="M428 284 C448 256 474 246 482 264 C488 280 464 294 428 288 Z" fill="#CFE5FB" stroke="#6F8FCB" stroke-width="3.5" stroke-linecap="round" stroke-linejoin="round"/>
  <path d="M84 288 C60 292 36 306 42 324 C48 340 72 320 86 294 Z" fill="#A9CBF2" stroke="#6F8FCB" stroke-width="3.5" stroke-linecap="round" stroke-linejoin="round"/>
  <path d="M428 288 C452 292 476 306 470 324 C464 340 440 320 426 294 Z" fill="#A9CBF2" stroke="#6F8FCB" stroke-width="3.5" stroke-linecap="round" stroke-linejoin="round"/>
  <path d="M256 100 C164 100 78 176 74 290 C72 346 82 396 104 430 C116 448 132 458 152 462 C154 452 160 445 170 440 C178 452 192 462 210 468 C214 459 222 452 232 448 C238 455 246 460 256 462 C266 460 274 455 280 448 C290 452 298 459 302 468 C320 462 334 452 342 440 C352 445 358 452 360 462 C380 458 396 448 408 430 C430 396 440 346 438 290 C434 176 348 100 256 100 Z" fill="url(#hair)" stroke="#7E4A74" stroke-width="5" stroke-linecap="round" stroke-linejoin="round"/>
  <path d="M256 100 C164 100 78 176 74 290 C72 346 82 396 104 430 C116 448 132 458 152 462 C154 452 160 445 170 440 C178 452 192 462 210 468 C214 459 222 452 232 448 C238 455 246 460 256 462 C266 460 274 455 280 448 C290 452 298 459 302 468 C320 462 334 452 342 440 C352 445 358 452 360 462 C380 458 396 448 408 430 C430 396 440 346 438 290 C434 176 348 100 256 100 Z" fill="url(#hairIn)"/>
  <path d="M108 204 C90 146 94 76 120 32 C124 25 133 24 139 29 C186 62 224 106 240 152 Z" fill="url(#earL)" stroke="#7E4A74" stroke-width="5" stroke-linecap="round" stroke-linejoin="round"/>
  <path d="M126 186 C112 140 114 92 128 56 C162 82 196 116 212 150 Z" fill="#FFDCE6" stroke="#EBA3BE" stroke-width="3" stroke-linecap="round" stroke-linejoin="round"/>
  <path d="M126 182 C122 160 124 140 130 120 C134 132 138 142 144 150 C142 130 144 112 150 94 C156 110 162 122 170 132 C170 122 172 114 176 106 C182 120 190 132 198 142 C202 146 206 150 210 152 Z" fill="#FFFAF5" stroke="#F0C6D4" stroke-width="2.5" stroke-linecap="round" stroke-linejoin="round"/>
  <path d="M404 204 C422 146 418 76 392 32 C388 25 379 24 373 29 C326 62 288 106 272 152 Z" fill="url(#earR)" stroke="#7E4A74" stroke-width="5" stroke-linecap="round" stroke-linejoin="round"/>
  <path d="M386 186 C400 140 398 92 384 56 C350 82 316 116 300 150 Z" fill="#FFDCE6" stroke="#EBA3BE" stroke-width="3" stroke-linecap="round" stroke-linejoin="round"/>
  <path d="M386 182 C390 160 388 140 382 120 C378 132 374 142 368 150 C370 130 368 112 362 94 C356 110 350 122 342 132 C342 122 340 114 336 106 C330 120 322 132 314 142 C310 146 306 150 302 152 Z" fill="#FFFAF5" stroke="#F0C6D4" stroke-width="2.5" stroke-linecap="round" stroke-linejoin="round"/>
  <path d="M256 168 C186 168 136 210 132 268 C128 322 142 364 180 396 C206 416 232 428 256 428 C280 428 306 416 332 396 C370 364 384 322 380 268 C376 210 326 168 256 168 Z" fill="url(#skin)" stroke="#DE98A6" stroke-width="4" stroke-linecap="round" stroke-linejoin="round"/>
  <path d="M92 314 C78 200 148 100 256 98 C364 100 434 200 420 314 C408 300 402 284 400 266 C398 284 388 298 372 308 C370 288 362 270 352 252 C350 260 346 264 340 267 C334 262 328 256 324 248 C320 258 312 265 302 268 C286 266 266 250 258 224 C250 250 230 266 212 268 C202 265 194 258 190 248 C186 256 180 262 174 267 C168 264 164 260 162 252 C158 272 152 292 140 308 C128 296 118 282 112 266 C110 284 104 300 92 314 Z" fill="#F6C6C2" opacity="0.5"/>
  <path d="M132 378 A24 11 0 1 0 180 378 A24 11 0 1 0 132 378 Z" fill="#FF9DB6" opacity="0.5"/>
  <path d="M380 378 A24 11 0 1 1 332 378 A24 11 0 1 1 380 378 Z" fill="#FF9DB6" opacity="0.5"/>
  <path d="M144 373 L140 383" fill="none" stroke="#F2789A" stroke-width="2.6" stroke-linecap="round" stroke-linejoin="round" opacity="0.7"/>
  <path d="M368 373 L372 383" fill="none" stroke="#F2789A" stroke-width="2.6" stroke-linecap="round" stroke-linejoin="round" opacity="0.7"/>
  <path d="M155 373 L151 383" fill="none" stroke="#F2789A" stroke-width="2.6" stroke-linecap="round" stroke-linejoin="round" opacity="0.7"/>
  <path d="M357 373 L361 383" fill="none" stroke="#F2789A" stroke-width="2.6" stroke-linecap="round" stroke-linejoin="round" opacity="0.7"/>
  <path d="M166 373 L162 383" fill="none" stroke="#F2789A" stroke-width="2.6" stroke-linecap="round" stroke-linejoin="round" opacity="0.7"/>
  <path d="M346 373 L350 383" fill="none" stroke="#F2789A" stroke-width="2.6" stroke-linecap="round" stroke-linejoin="round" opacity="0.7"/>
  <path d="M162 311 C163 289 180 274 200 274 C217 274 229 286 231 303 C233 325 222 345 198 348 C176 349 162 333 162 311 Z" fill="#FFFFFF"/>
  <path d="M164 303 C168 287 182 277 200 277 C216 277 227 287 230 301 C220 291 210 287 198 287 C184 287 172 293 164 303 Z" fill="#DCCFEA" opacity="0.75"/>
  <path d="M350 311 C349 289 332 274 312 274 C295 274 283 286 281 303 C279 325 290 345 314 348 C336 349 350 333 350 311 Z" fill="#FFFFFF"/>
  <path d="M348 303 C344 287 330 277 312 277 C296 277 285 287 282 301 C292 291 302 287 314 287 C328 287 340 293 348 303 Z" fill="#DCCFEA" opacity="0.75"/>
  <path d="M169.5 313 A27.5 33 0 1 0 224.5 313 A27.5 33 0 1 0 169.5 313 Z" fill="url(#irisL)"/>
  <path d="M169.5 313 A27.5 33 0 1 0 224.5 313 A27.5 33 0 1 0 169.5 313 Z" fill="none" stroke="#6A2A0C" stroke-width="3" stroke-linecap="round" stroke-linejoin="round" opacity="0.55"/>
  <path d="M170.54 304 A27.5 33 0 0 1 223.46 304 C208 312 186 312 170.54 304 Z" fill="#43190A" opacity="0.38"/>
  <path d="M186 314 A11 15.5 0 1 0 208 314 A11 15.5 0 1 0 186 314 Z" fill="#43190A"/>
  <path d="M181 335 A16 8 0 1 0 213 335 A16 8 0 1 0 181 335 Z" fill="#FFF2B8" opacity="0.75"/>
  <path d="M175.5 296 A9.5 9.5 0 1 0 194.5 296 A9.5 9.5 0 1 0 175.5 296 Z" fill="#FFFFFF"/>
  <path d="M206.6 331 A4.4 4.4 0 1 0 215.4 331 A4.4 4.4 0 1 0 206.6 331 Z" fill="#FFFFFF"/>
  <path d="M176 313 A3 3 0 1 0 182 313 A3 3 0 1 0 176 313 Z" fill="#FFFFFF" opacity="0.85"/>
  <path d="M342.5 313 A27.5 33 0 1 1 287.5 313 A27.5 33 0 1 1 342.5 313 Z" fill="url(#irisR)"/>
  <path d="M342.5 313 A27.5 33 0 1 1 287.5 313 A27.5 33 0 1 1 342.5 313 Z" fill="none" stroke="#241A5C" stroke-width="3" stroke-linecap="round" stroke-linejoin="round" opacity="0.55"/>
  <path d="M341.46 304 A27.5 33 0 0 0 288.54 304 C304 312 326 312 341.46 304 Z" fill="#1D164E" opacity="0.38"/>
  <path d="M326 314 A11 15.5 0 1 1 304 314 A11 15.5 0 1 1 326 314 Z" fill="#1D164E"/>
  <path d="M331 335 A16 8 0 1 1 299 335 A16 8 0 1 1 331 335 Z" fill="#DCE8FF" opacity="0.75"/>
  <path d="M293.5 296 A9.5 9.5 0 1 0 312.5 296 A9.5 9.5 0 1 0 293.5 296 Z" fill="#FFFFFF"/>
  <path d="M324.6 331 A4.4 4.4 0 1 0 333.4 331 A4.4 4.4 0 1 0 324.6 331 Z" fill="#FFFFFF"/>
  <path d="M294 313 A3 3 0 1 0 300 313 A3 3 0 1 0 294 313 Z" fill="#FFFFFF" opacity="0.85"/>
  <path d="M146 293 C158 273 178 262 200 262 C216 262 230 271 238 289 C230 279 216 274 200 274 C184 274 170 283 164 301 C162 306 160 311 160 315 C154 307 150 301 146 293 Z" fill="#3A2232"/>
  <path d="M153 304 C148 303 143 304 139 307 C145 308 150 311 154 315 Z" fill="#3A2232"/>
  <path d="M178 350 C190 355 208 354 220 347" fill="none" stroke="#7A5468" stroke-width="3" stroke-linecap="round" stroke-linejoin="round" opacity="0.8"/>
  <path d="M366 293 C354 273 334 262 312 262 C296 262 282 271 274 289 C282 279 296 274 312 274 C328 274 342 283 348 301 C350 306 352 311 352 315 C358 307 362 301 366 293 Z" fill="#3A2232"/>
  <path d="M359 304 C364 303 369 304 373 307 C367 308 362 311 358 315 Z" fill="#3A2232"/>
  <path d="M334 350 C322 355 304 354 292 347" fill="none" stroke="#7A5468" stroke-width="3" stroke-linecap="round" stroke-linejoin="round" opacity="0.8"/>
  <path d="M254 374 C255 377 257 378 259 378" fill="none" stroke="#E8A0A0" stroke-width="3.4" stroke-linecap="round" stroke-linejoin="round"/>
  <path d="M242 394 C245 402 253 402 256 395 C259 402 267 402 270 394" fill="none" stroke="#B4506C" stroke-width="4" stroke-linecap="round" stroke-linejoin="round"/>
  <path d="M140 300 L104 292" fill="none" stroke="#1D1924" stroke-width="8" stroke-linecap="round" stroke-linejoin="round"/>
  <path d="M372 300 L408 292" fill="none" stroke="#1D1924" stroke-width="8" stroke-linecap="round" stroke-linejoin="round"/>
  <path d="M100 240 C84 286 76 350 88 400 C92 418 100 432 112 442 C112 430 114 420 120 412 C126 430 136 444 152 450 C142 434 138 418 140 398 C144 358 146 300 134 244 Z" fill="url(#hair)" stroke="#7E4A74" stroke-width="5" stroke-linecap="round" stroke-linejoin="round"/>
  <path d="M112 270 C102 320 102 380 114 430" fill="none" stroke="#EC93B1" stroke-width="3" stroke-linecap="round" stroke-linejoin="round" opacity="0.7"/>
  <path d="M412 240 C428 286 436 350 424 400 C420 418 412 432 400 442 C400 430 398 420 392 412 C386 430 376 444 360 450 C370 434 374 418 372 398 C368 358 366 300 378 244 Z" fill="url(#hair)" stroke="#7E4A74" stroke-width="5" stroke-linecap="round" stroke-linejoin="round"/>
  <path d="M400 270 C410 320 410 380 398 430" fill="none" stroke="#EC93B1" stroke-width="3" stroke-linecap="round" stroke-linejoin="round" opacity="0.7"/>
  <path d="M238 190 C232 240 240 290 260 324 C270 292 282 240 282 190 Z" fill="url(#tuft)" stroke="#7E4A74" stroke-width="4" stroke-linecap="round" stroke-linejoin="round"/>
  <path d="M92 304 C78 190 148 90 256 88 C364 90 434 190 420 304 C408 290 402 274 400 256 C398 274 388 288 372 298 C370 278 362 260 352 242 C350 250 346 254 340 257 C334 252 328 246 324 238 C320 248 312 255 302 258 C286 256 266 240 258 214 C250 240 230 256 212 258 C202 255 194 248 190 238 C186 246 180 252 174 257 C168 254 164 250 162 242 C158 262 152 282 140 298 C128 286 118 272 112 256 C110 274 104 290 92 304 Z" fill="url(#hair)" stroke="#7E4A74" stroke-width="5" stroke-linecap="round" stroke-linejoin="round"/>
  <path d="M168 196 C184 170 208 152 238 145" fill="none" stroke="#FFE9F0" stroke-width="9" stroke-linecap="round" stroke-linejoin="round" opacity="0.8"/>
  <path d="M292 147 C316 154 336 168 350 188" fill="none" stroke="#FFE9F0" stroke-width="9" stroke-linecap="round" stroke-linejoin="round" opacity="0.8"/>
  <path d="M212 102 C238 90 280 88 304 100 C280 96 240 98 212 106 Z" fill="#C2557F" opacity="0.9"/>
  <path d="M112 256 C114 222 128 186 150 158" fill="none" stroke="#EC93B1" stroke-width="2.8" stroke-linecap="round" stroke-linejoin="round" opacity="0.8"/>
  <path d="M162 242 C164 214 176 184 194 160" fill="none" stroke="#EC93B1" stroke-width="2.8" stroke-linecap="round" stroke-linejoin="round" opacity="0.8"/>
  <path d="M190 238 C192 212 204 186 220 162" fill="none" stroke="#EC93B1" stroke-width="2.8" stroke-linecap="round" stroke-linejoin="round" opacity="0.8"/>
  <path d="M324 238 C322 212 310 186 294 162" fill="none" stroke="#EC93B1" stroke-width="2.8" stroke-linecap="round" stroke-linejoin="round" opacity="0.8"/>
  <path d="M352 242 C350 214 338 184 320 160" fill="none" stroke="#EC93B1" stroke-width="2.8" stroke-linecap="round" stroke-linejoin="round" opacity="0.8"/>
  <path d="M400 258 C398 222 384 186 362 158" fill="none" stroke="#EC93B1" stroke-width="2.8" stroke-linecap="round" stroke-linejoin="round" opacity="0.8"/>
  <path d="M250 106 C224 142 210 196 211 254 C222 202 238 150 262 110 Z" fill="#BCE0FB" opacity="0.92"/>
  <path d="M278 106 C320 138 354 192 368 252 C340 198 308 148 270 112 Z" fill="#BCE0FB" opacity="0.92"/>
  <path d="M168 236 C180 229 200 228 216 233" fill="none" stroke="#BE6E8C" stroke-width="3.4" stroke-linecap="round" stroke-linejoin="round" opacity="0.8"/>
  <path d="M344 236 C332 229 312 228 296 233" fill="none" stroke="#BE6E8C" stroke-width="3.4" stroke-linecap="round" stroke-linejoin="round" opacity="0.8"/>
  <path d="M122 224 L164 214" fill="none" stroke="#9A84CC" stroke-width="11" stroke-linecap="round" stroke-linejoin="round"/>
  <path d="M122 224 L164 214" fill="none" stroke="#F3E9FF" stroke-width="6.5" stroke-linecap="round" stroke-linejoin="round"/>
  <path d="M126 242 L168 232" fill="none" stroke="#9A84CC" stroke-width="11" stroke-linecap="round" stroke-linejoin="round"/>
  <path d="M126 242 L168 232" fill="none" stroke="#F3E9FF" stroke-width="6.5" stroke-linecap="round" stroke-linejoin="round"/>
  <path d="M346 226 C354 213 368 209 392 211 C388 217 388 222 390 228 C382 226 378 228 376 234 C370 230 364 230 360 236 C356 230 352 228 346 226 Z" fill="#D8EDFF" stroke="#6F8FCB" stroke-width="3" stroke-linecap="round" stroke-linejoin="round"/>
  <path d="M139 309 C139 269.8 155.5 253 194 253 C232.5 253 249 269.8 249 309 C249 348.2 232.5 365 194 365 C155.5 365 139 348.2 139 309 Z" fill="#FFFFFF" opacity="0.1"/>
  <path d="M373 309 C373 269.8 356.5 253 318 253 C279.5 253 263 269.8 263 309 C263 348.2 279.5 365 318 365 C356.5 365 373 348.2 373 309 Z" fill="#FFFFFF" opacity="0.1"/>
  <path d="M139 309 C139 269.8 155.5 253 194 253 C232.5 253 249 269.8 249 309 C249 348.2 232.5 365 194 365 C155.5 365 139 348.2 139 309 Z" fill="none" stroke="#1D1924" stroke-width="10" stroke-linecap="round" stroke-linejoin="round"/>
  <path d="M373 309 C373 269.8 356.5 253 318 253 C279.5 253 263 269.8 263 309 C263 348.2 279.5 365 318 365 C356.5 365 373 348.2 373 309 Z" fill="none" stroke="#1D1924" stroke-width="10" stroke-linecap="round" stroke-linejoin="round"/>
  <path d="M249 300 C252 293 260 293 263 300" fill="none" stroke="#1D1924" stroke-width="8" stroke-linecap="round" stroke-linejoin="round"/>
  <path d="M135.5 273 A11.5 9.5 0 1 0 158.5 273 A11.5 9.5 0 1 0 135.5 273 Z" fill="#FFB29C" stroke="#5A2E3A" stroke-width="3" stroke-linecap="round" stroke-linejoin="round"/>
  <path d="M127.4 263 A4.6 4.6 0 1 0 136.6 263 A4.6 4.6 0 1 0 127.4 263 Z" fill="#FFB29C" stroke="#5A2E3A" stroke-width="2.4" stroke-linecap="round" stroke-linejoin="round"/>
  <path d="M135.4 254 A4.6 4.6 0 1 0 144.6 254 A4.6 4.6 0 1 0 135.4 254 Z" fill="#FFB29C" stroke="#5A2E3A" stroke-width="2.4" stroke-linecap="round" stroke-linejoin="round"/>
  <path d="M147.4 252 A4.6 4.6 0 1 0 156.6 252 A4.6 4.6 0 1 0 147.4 252 Z" fill="#FFB29C" stroke="#5A2E3A" stroke-width="2.4" stroke-linecap="round" stroke-linejoin="round"/>
  <path d="M157.4 259 A4.6 4.6 0 1 0 166.6 259 A4.6 4.6 0 1 0 157.4 259 Z" fill="#FFB29C" stroke="#5A2E3A" stroke-width="2.4" stroke-linecap="round" stroke-linejoin="round"/>
  <path d="M256 96 C244 72 244 44 264 34 C276 28 290 32 294 42 C284 37 273 40 268 50 C261 64 265 82 271 96 Z" fill="#FAB9CC" stroke="#7E4A74" stroke-width="5" stroke-linecap="round" stroke-linejoin="round"/>
</svg>
